<?xml version="1.0" encoding="UTF-8"?>
<svg width="24" height="24" viewBox="0 0 24 24" fill="none" xmlns="http://www.w3.org/2000/svg">
  <g>
    <rect width="24" height="24" fill="white" fill-opacity="0"/>
    <path d="M8 2h8v2h-1v5.586l4.293 4.293a1 1 0 01-1.414 1.414l-1.293-1.293V20a2 2 0 01-2 2h-4a2 2 0 01-2-2v-5.586l-1.293 1.293a1 1 0 01-1.414-1.414L7 9.586V4H6V2zm2 2v6.414l-2.293 2.293a1 1 0 001.414 1.414l1.293-1.293V20h4V10.828l1.293 1.293a1 1 0 001.414-1.414L14 8.414V4h-4z" fill="#715099"/>
    <ellipse cx="12" cy="17" rx="3" ry="1.5" fill="#B39DDB"/>
  </g>
</svg> 